<svg width="691" height="324" viewBox="0 0 691 324" fill="none" xmlns="http://www.w3.org/2000/svg">
<rect width="691" height="324" rx="26" fill="white"/>
<path d="M123.205 219.418C123.205 217.148 123.991 215.226 125.563 213.654C127.135 212.082 129.056 211.296 131.327 211.296C133.598 211.296 135.519 212.082 137.091 213.654C138.663 215.226 139.449 217.148 139.449 219.418C139.449 221.689 138.663 223.61 137.091 225.182C135.519 226.754 133.598 227.54 131.327 227.54C129.056 227.54 127.135 226.754 125.563 225.182C123.991 223.61 123.205 221.689 123.205 219.418ZM95.5639 231.208C94.2539 232.78 92.6382 233.566 90.7169 233.566C88.9702 233.566 87.4856 232.955 86.2629 231.732C85.0402 230.51 84.4289 229.025 84.4289 227.278C84.4289 225.706 84.8656 224.44 85.7389 223.479L117.572 180.642C119.057 178.634 121.022 177.018 123.467 175.795C125.912 174.485 128.532 173.83 131.327 173.83C133.947 173.83 136.436 174.398 138.794 175.533C141.152 176.669 143.073 178.241 144.558 180.249L176.391 222.824C176.915 223.436 177.352 224.134 177.701 224.92C178.05 225.619 178.225 226.405 178.225 227.278C178.225 229.025 177.614 230.51 176.391 231.732C175.168 232.955 173.684 233.566 171.937 233.566C169.841 233.566 168.182 232.737 166.959 231.077L136.436 190.336C135.825 189.638 135.039 188.895 134.078 188.109C133.205 187.236 132.288 186.799 131.327 186.799C130.366 186.799 129.406 187.236 128.445 188.109C127.572 188.895 126.873 189.638 126.349 190.336L95.5639 231.208ZM208.801 211.296C206.356 211.296 204.085 210.86 201.989 209.986C199.893 209.026 198.059 207.759 196.487 206.187C194.915 204.615 193.649 202.781 192.688 200.685C191.815 198.589 191.378 196.319 191.378 193.873C191.378 191.428 191.815 189.157 192.688 187.061C193.649 184.965 194.915 183.131 196.487 181.559C198.059 179.987 199.893 178.765 201.989 177.891C204.085 176.931 206.356 176.45 208.801 176.45H288.318C290.065 176.45 291.549 177.062 292.772 178.284C293.995 179.507 294.606 180.992 294.606 182.738C294.606 184.485 293.995 185.97 292.772 187.192C291.549 188.415 290.065 189.026 288.318 189.026H208.539C207.229 189.026 206.05 189.507 205.002 190.467C204.041 191.341 203.561 192.476 203.561 193.873C203.561 195.183 204.041 196.319 205.002 197.279C206.05 198.24 207.229 198.72 208.539 198.72H280.982C283.427 198.72 285.698 199.201 287.794 200.161C289.977 201.035 291.855 202.257 293.427 203.829C294.999 205.401 296.222 207.279 297.095 209.462C298.056 211.558 298.536 213.829 298.536 216.274C298.536 218.72 298.056 220.99 297.095 223.086C296.222 225.182 294.999 227.016 293.427 228.588C291.855 230.16 289.977 231.383 287.794 232.256C285.698 233.13 283.427 233.566 280.982 233.566H201.596C199.849 233.566 198.365 232.955 197.142 231.732C195.919 230.51 195.308 229.025 195.308 227.278C195.308 225.532 195.919 224.047 197.142 222.824C198.365 221.602 199.849 220.99 201.596 220.99H281.506C282.816 220.99 283.951 220.554 284.912 219.68C285.873 218.72 286.353 217.584 286.353 216.274C286.353 214.877 285.873 213.698 284.912 212.737C283.951 211.777 282.816 211.296 281.506 211.296H208.801ZM408.048 176.45C409.795 176.45 411.279 177.062 412.502 178.284C413.725 179.507 414.336 180.992 414.336 182.738C414.336 184.485 413.725 185.97 412.502 187.192C411.279 188.415 409.795 189.026 408.048 189.026H369.272V227.278C369.272 229.025 368.661 230.51 367.438 231.732C366.215 232.955 364.731 233.566 362.984 233.566C361.237 233.566 359.753 232.955 358.53 231.732C357.307 230.51 356.696 229.025 356.696 227.278V189.026H317.396C315.824 188.852 314.47 188.197 313.335 187.061C312.2 185.839 311.632 184.398 311.632 182.738C311.632 180.992 312.243 179.507 313.466 178.284C314.689 177.062 316.173 176.45 317.92 176.45H408.048ZM511.641 211.296C513.999 212.781 516.401 214.397 518.846 216.143C521.292 217.803 523.781 219.637 526.313 221.645C527.274 222.344 528.104 223.174 528.802 224.134C529.501 225.008 529.85 226.056 529.85 227.278C529.85 229.025 529.239 230.51 528.016 231.732C526.794 232.955 525.309 233.566 523.562 233.566C522.078 233.566 520.593 232.955 519.108 231.732C515.528 229.112 511.86 226.58 508.104 224.134C504.349 221.689 500.419 219.506 496.314 217.584C492.297 215.663 488.105 214.135 483.738 212.999C479.372 211.864 474.83 211.296 470.114 211.296H444.045C442.91 211.471 441.949 211.995 441.163 212.868C440.377 213.742 439.984 214.833 439.984 216.143V227.278C439.984 229.025 439.329 230.51 438.019 231.732C436.797 232.955 435.356 233.566 433.696 233.566C431.95 233.566 430.465 232.955 429.242 231.732C428.02 230.51 427.408 229.025 427.408 227.278V214.702C427.408 212.519 427.801 210.467 428.587 208.545C429.461 206.537 430.596 204.834 431.993 203.436C433.391 201.952 435.05 200.816 436.971 200.03C438.893 199.157 440.989 198.72 443.259 198.72H512.689C513.999 198.72 515.135 198.284 516.095 197.41C517.143 196.45 517.667 195.271 517.667 193.873C517.667 192.563 517.143 191.428 516.095 190.467C515.135 189.507 513.999 189.026 512.689 189.026H433.696C431.95 189.026 430.465 188.415 429.242 187.192C428.02 185.97 427.408 184.485 427.408 182.738C427.408 180.992 428.02 179.507 429.242 178.284C430.465 177.062 431.95 176.45 433.696 176.45H512.165C514.611 176.45 516.881 176.931 518.977 177.891C521.161 178.765 523.038 179.987 524.61 181.559C526.27 183.131 527.536 184.965 528.409 187.061C529.37 189.157 529.85 191.428 529.85 193.873C529.85 196.319 529.37 198.589 528.409 200.685C527.536 202.781 526.27 204.615 524.61 206.187C523.038 207.759 521.161 209.026 518.977 209.986C516.881 210.86 514.611 211.296 512.165 211.296H511.641ZM622.708 220.99C625.677 220.99 628.123 220.466 630.044 219.418C631.965 218.283 633.45 216.929 634.498 215.357C635.633 213.785 636.376 212.082 636.725 210.248C637.162 208.327 637.38 206.58 637.38 205.008C637.38 203.436 637.162 201.733 636.725 199.899C636.376 197.978 635.633 196.231 634.498 194.659C633.45 193.087 631.965 191.777 630.044 190.729C628.123 189.594 625.677 189.026 622.708 189.026H569.784C566.727 189.026 564.238 189.594 562.317 190.729C560.483 191.777 558.998 193.087 557.863 194.659C556.815 196.231 556.073 197.978 555.636 199.899C555.287 201.733 555.112 203.436 555.112 205.008C555.112 206.58 555.287 208.327 555.636 210.248C556.073 212.082 556.815 213.785 557.863 215.357C558.998 216.929 560.483 218.283 562.317 219.418C564.238 220.466 566.727 220.99 569.784 220.99H622.708ZM649.563 205.008C649.563 208.327 648.995 211.689 647.86 215.095C646.812 218.414 645.24 221.471 643.144 224.265C641.048 226.973 638.515 229.2 635.546 230.946C632.577 232.693 629.214 233.566 625.459 233.566H565.723C562.142 233.392 558.955 232.431 556.16 230.684C553.365 228.85 550.964 226.58 548.955 223.872C547.034 221.165 545.549 218.152 544.501 214.833C543.453 211.515 542.929 208.24 542.929 205.008C542.929 201.69 543.453 198.371 544.501 195.052C545.636 191.646 547.252 188.59 549.348 185.882C551.444 183.088 553.977 180.817 556.946 179.07C559.915 177.324 563.278 176.45 567.033 176.45H626.769C630.35 176.625 633.537 177.629 636.332 179.463C639.127 181.21 641.485 183.437 643.406 186.144C645.415 188.852 646.943 191.865 647.991 195.183C649.039 198.502 649.563 201.777 649.563 205.008Z" fill="black"/>
<circle cx="597.5" cy="193.129" r="60.5" fill="white"/>
<circle cx="597.5" cy="193.129" r="45.5" fill="black"/>
<circle cx="597.5" cy="193.129" r="32.5" fill="white"/>
<path d="M562 209.129C550 182.129 513 115.629 488 86.1294C529.167 95.7961 607.7 140.829 628.5 169.629" stroke="black" stroke-width="12.7" stroke-linecap="round"/>
<path d="M451 67.6119C329 16.6119 103.5 70.6294 55 227.129" stroke="black" stroke-width="12.7" stroke-linecap="round"/>
</svg>
