<svg width="691" height="324" viewBox="0 0 691 324" fill="none" xmlns="http://www.w3.org/2000/svg">
<rect width="691" height="324" rx="26" fill="white"/>
<path d="M123.205 219.418C123.205 217.148 123.991 215.226 125.563 213.654C127.135 212.082 129.056 211.296 131.327 211.296C133.598 211.296 135.519 212.082 137.091 213.654C138.663 215.226 139.449 217.148 139.449 219.418C139.449 221.689 138.663 223.61 137.091 225.182C135.519 226.754 133.598 227.54 131.327 227.54C129.056 227.54 127.135 226.754 125.563 225.182C123.991 223.61 123.205 221.689 123.205 219.418ZM95.5639 231.208C94.2539 232.78 92.6382 233.566 90.7169 233.566C88.9702 233.566 87.4856 232.955 86.2629 231.732C85.0402 230.51 84.4289 229.025 84.4289 227.278C84.4289 225.706 84.8656 224.44 85.7389 223.479L117.572 180.642C119.057 178.634 121.022 177.018 123.467 175.795C125.912 174.485 128.532 173.83 131.327 173.83C133.947 173.83 136.436 174.398 138.794 175.533C141.152 176.669 143.073 178.241 144.558 180.249L176.391 222.824C176.915 223.436 177.352 224.134 177.701 224.92C178.05 225.619 178.225 226.405 178.225 227.278C178.225 229.025 177.614 230.51 176.391 231.732C175.168 232.955 173.684 233.566 171.937 233.566C169.841 233.566 168.182 232.737 166.959 231.077L136.436 190.336C135.825 189.638 135.039 188.895 134.078 188.109C133.205 187.236 132.288 186.799 131.327 186.799C130.366 186.799 129.406 187.236 128.445 188.109C127.572 188.895 126.873 189.638 126.349 190.336L95.5639 231.208ZM208.801 211.296C206.356 211.296 204.085 210.86 201.989 209.986C199.893 209.026 198.059 207.759 196.487 206.187C194.915 204.615 193.649 202.781 192.688 200.685C191.815 198.589 191.378 196.319 191.378 193.873C191.378 191.428 191.815 189.157 192.688 187.061C193.649 184.965 194.915 183.131 196.487 181.559C198.059 179.987 199.893 178.765 201.989 177.891C204.085 176.931 206.356 176.45 208.801 176.45H288.318C290.065 176.45 291.549 177.062 292.772 178.284C293.995 179.507 294.606 180.992 294.606 182.738C294.606 184.485 293.995 185.97 292.772 187.192C291.549 188.415 290.065 189.026 288.318 189.026H208.539C207.229 189.026 206.05 189.507 205.002 190.467C204.041 191.341 203.561 192.476 203.561 193.873C203.561 195.183 204.041 196.319 205.002 197.279C206.05 198.24 207.229 198.72 208.539 198.72H280.982C283.427 198.72 285.698 199.201 287.794 200.161C289.977 201.035 291.855 202.257 293.427 203.829C294.999 205.401 296.222 207.279 297.095 209.462C298.056 211.558 298.536 213.829 298.536 216.274C298.536 218.72 298.056 220.99 297.095 223.086C296.222 225.182 294.999 227.016 293.427 228.588C291.855 230.16 289.977 231.383 287.794 232.256C285.698 233.13 283.427 233.566 280.982 233.566H201.596C199.849 233.566 198.365 232.955 197.142 231.732C195.919 230.51 195.308 229.025 195.308 227.278C195.308 225.532 195.919 224.047 197.142 222.824C198.365 221.602 199.849 220.99 201.596 220.99H281.506C282.816 220.99 283.951 220.554 284.912 219.68C285.873 218.72 286.353 217.584 286.353 216.274C286.353 214.877 285.873 213.698 284.912 212.737C283.951 211.777 282.816 211.296 281.506 211.296H208.801ZM408.048 176.45C409.795 176.45 411.279 177.062 412.502 178.284C413.725 179.507 414.336 180.992 414.336 182.738C414.336 184.485 413.725 185.97 412.502 187.192C411.279 188.415 409.795 189.026 408.048 189.026H369.272V227.278C369.272 229.025 368.661 230.51 367.438 231.732C366.215 232.955 364.731 233.566 362.984 233.566C361.237 233.566 359.753 232.955 358.53 231.732C357.307 230.51 356.696 229.025 356.696 227.278V189.026H317.396C315.824 188.852 314.47 188.197 313.335 187.061C312.2 185.839 311.632 184.398 311.632 182.738C311.632 180.992 312.243 179.507 313.466 178.284C314.689 177.062 316.173 176.45 317.92 176.45H408.048ZM511.641 211.296C513.999 212.781 516.401 214.397 518.846 216.143C521.292 217.803 523.781 219.637 526.313 221.645C527.274 222.344 528.104 223.174 528.802 224.134C529.501 225.008 529.85 226.056 529.85 227.278C529.85 229.025 529.239 230.51 528.016 231.732C526.794 232.955 525.309 233.566 523.562 233.566C522.078 233.566 520.593 232.955 519.108 231.732C515.528 229.112 511.86 226.58 508.104 224.134C504.349 221.689 500.419 219.506 496.314 217.584C492.297 215.663 488.105 214.135 483.738 212.999C479.372 211.864 474.83 211.296 470.114 211.296H444.045C442.91 211.471 441.949 211.995 441.163 212.868C440.377 213.742 439.984 214.833 439.984 216.143V227.278C439.984 229.025 439.329 230.51 438.019 231.732C436.797 232.955 435.356 233.566 433.696 233.566C431.95 233.566 430.465 232.955 429.242 231.732C428.02 230.51 427.408 229.025 427.408 227.278V214.702C427.408 212.519 427.801 210.467 428.587 208.545C429.461 206.537 430.596 204.834 431.993 203.436C433.391 201.952 435.05 200.816 436.971 200.03C438.893 199.157 440.989 198.72 443.259 198.72H512.689C513.999 198.72 515.135 198.284 516.095 197.41C517.143 196.45 517.667 195.271 517.667 193.873C517.667 192.563 517.143 191.428 516.095 190.467C515.135 189.507 513.999 189.026 512.689 189.026H433.696C431.95 189.026 430.465 188.415 429.242 187.192C428.02 185.97 427.408 184.485 427.408 182.738C427.408 180.992 428.02 179.507 429.242 178.284C430.465 177.062 431.95 176.45 433.696 176.45H512.165C514.611 176.45 516.881 176.931 518.977 177.891C521.161 178.765 523.038 179.987 524.61 181.559C526.27 183.131 527.536 184.965 528.409 187.061C529.37 189.157 529.85 191.428 529.85 193.873C529.85 196.319 529.37 198.589 528.409 200.685C527.536 202.781 526.27 204.615 524.61 206.187C523.038 207.759 521.161 209.026 518.977 209.986C516.881 210.86 514.611 211.296 512.165 211.296H511.641ZM622.708 220.99C625.677 220.99 628.123 220.466 630.044 219.418C631.965 218.283 633.45 216.929 634.498 215.357C635.633 213.785 636.376 212.082 636.725 210.248C637.162 208.327 637.38 206.58 637.38 205.008C637.38 203.436 637.162 201.733 636.725 199.899C636.376 197.978 635.633 196.231 634.498 194.659C633.45 193.087 631.965 191.777 630.044 190.729C628.123 189.594 625.677 189.026 622.708 189.026H569.784C566.727 189.026 564.238 189.594 562.317 190.729C560.483 191.777 558.998 193.087 557.863 194.659C556.815 196.231 556.073 197.978 555.636 199.899C555.287 201.733 555.112 203.436 555.112 205.008C555.112 206.58 555.287 208.327 555.636 210.248C556.073 212.082 556.815 213.785 557.863 215.357C558.998 216.929 560.483 218.283 562.317 219.418C564.238 220.466 566.727 220.99 569.784 220.99H622.708ZM649.563 205.008C649.563 208.327 648.995 211.689 647.86 215.095C646.812 218.414 645.24 221.471 643.144 224.265C641.048 226.973 638.515 229.2 635.546 230.946C632.577 232.693 629.214 233.566 625.459 233.566H565.723C562.142 233.392 558.955 232.431 556.16 230.684C553.365 228.85 550.964 226.58 548.955 223.872C547.034 221.165 545.549 218.152 544.501 214.833C543.453 211.515 542.929 208.24 542.929 205.008C542.929 201.69 543.453 198.371 544.501 195.052C545.636 191.646 547.252 188.59 549.348 185.882C551.444 183.088 553.977 180.817 556.946 179.07C559.915 177.324 563.278 176.45 567.033 176.45H626.769C630.35 176.625 633.537 177.629 636.332 179.463C639.127 181.21 641.485 183.437 643.406 186.144C645.415 188.852 646.943 191.865 647.991 195.183C649.039 198.502 649.563 201.777 649.563 205.008Z" fill="black"/>
<path d="M61.3591 265.484C61.3591 264.86 61.5751 264.332 62.0071 263.9C62.4391 263.468 62.9671 263.252 63.5911 263.252C64.2151 263.252 64.7431 263.468 65.1751 263.9C65.6071 264.332 65.8231 264.86 65.8231 265.484C65.8231 266.108 65.6071 266.636 65.1751 267.068C64.7431 267.5 64.2151 267.716 63.5911 267.716C62.9671 267.716 62.4391 267.5 62.0071 267.068C61.5751 266.636 61.3591 266.108 61.3591 265.484ZM53.7631 268.724C53.4031 269.156 52.9591 269.372 52.4311 269.372C51.9511 269.372 51.5431 269.204 51.2071 268.868C50.8711 268.532 50.7031 268.124 50.7031 267.644C50.7031 267.212 50.8231 266.864 51.0631 266.6L59.8111 254.828C60.2191 254.276 60.7591 253.832 61.4311 253.496C62.1031 253.136 62.8231 252.956 63.5911 252.956C64.3111 252.956 64.9951 253.112 65.6431 253.424C66.2911 253.736 66.8191 254.168 67.2271 254.72L75.9751 266.42C76.1191 266.588 76.2391 266.78 76.3351 266.996C76.4311 267.188 76.4791 267.404 76.4791 267.644C76.4791 268.124 76.3111 268.532 75.9751 268.868C75.6391 269.204 75.2311 269.372 74.7511 269.372C74.1751 269.372 73.7191 269.144 73.3831 268.688L64.9951 257.492C64.8271 257.3 64.6111 257.096 64.3471 256.88C64.1071 256.64 63.8551 256.52 63.5911 256.52C63.3271 256.52 63.0631 256.64 62.7991 256.88C62.5591 257.096 62.3671 257.3 62.2231 257.492L53.7631 268.724ZM83.6218 263.252C82.9498 263.252 82.3258 263.132 81.7498 262.892C81.1738 262.628 80.6698 262.28 80.2378 261.848C79.8058 261.416 79.4578 260.912 79.1938 260.336C78.9538 259.76 78.8338 259.136 78.8338 258.464C78.8338 257.792 78.9538 257.168 79.1938 256.592C79.4578 256.016 79.8058 255.512 80.2378 255.08C80.6698 254.648 81.1738 254.312 81.7498 254.072C82.3258 253.808 82.9498 253.676 83.6218 253.676H105.474C105.954 253.676 106.362 253.844 106.698 254.18C107.034 254.516 107.202 254.924 107.202 255.404C107.202 255.884 107.034 256.292 106.698 256.628C106.362 256.964 105.954 257.132 105.474 257.132H83.5498C83.1898 257.132 82.8658 257.264 82.5778 257.528C82.3138 257.768 82.1818 258.08 82.1818 258.464C82.1818 258.824 82.3138 259.136 82.5778 259.4C82.8658 259.664 83.1898 259.796 83.5498 259.796H103.458C104.13 259.796 104.754 259.928 105.33 260.192C105.93 260.432 106.446 260.768 106.878 261.2C107.31 261.632 107.646 262.148 107.886 262.748C108.15 263.324 108.282 263.948 108.282 264.62C108.282 265.292 108.15 265.916 107.886 266.492C107.646 267.068 107.31 267.572 106.878 268.004C106.446 268.436 105.93 268.772 105.33 269.012C104.754 269.252 104.13 269.372 103.458 269.372H81.6418C81.1618 269.372 80.7538 269.204 80.4178 268.868C80.0818 268.532 79.9138 268.124 79.9138 267.644C79.9138 267.164 80.0818 266.756 80.4178 266.42C80.7538 266.084 81.1618 265.916 81.6418 265.916H103.602C103.962 265.916 104.274 265.796 104.538 265.556C104.802 265.292 104.934 264.98 104.934 264.62C104.934 264.236 104.802 263.912 104.538 263.648C104.274 263.384 103.962 263.252 103.602 263.252H83.6218ZM137.117 253.676C137.597 253.676 138.005 253.844 138.341 254.18C138.677 254.516 138.845 254.924 138.845 255.404C138.845 255.884 138.677 256.292 138.341 256.628C138.005 256.964 137.597 257.132 137.117 257.132H126.461V267.644C126.461 268.124 126.293 268.532 125.957 268.868C125.621 269.204 125.213 269.372 124.733 269.372C124.253 269.372 123.845 269.204 123.509 268.868C123.173 268.532 123.005 268.124 123.005 267.644V257.132H112.205C111.773 257.084 111.401 256.904 111.089 256.592C110.777 256.256 110.621 255.86 110.621 255.404C110.621 254.924 110.789 254.516 111.125 254.18C111.461 253.844 111.869 253.676 112.349 253.676H137.117ZM164.325 263.252C164.973 263.66 165.633 264.104 166.305 264.584C166.977 265.04 167.661 265.544 168.357 266.096C168.621 266.288 168.849 266.516 169.041 266.78C169.233 267.02 169.329 267.308 169.329 267.644C169.329 268.124 169.161 268.532 168.825 268.868C168.489 269.204 168.081 269.372 167.601 269.372C167.193 269.372 166.785 269.204 166.377 268.868C165.393 268.148 164.385 267.452 163.353 266.78C162.321 266.108 161.241 265.508 160.113 264.98C159.009 264.452 157.857 264.032 156.657 263.72C155.457 263.408 154.209 263.252 152.913 263.252H145.749C145.437 263.3 145.173 263.444 144.957 263.684C144.741 263.924 144.633 264.224 144.633 264.584V267.644C144.633 268.124 144.453 268.532 144.093 268.868C143.757 269.204 143.361 269.372 142.905 269.372C142.425 269.372 142.017 269.204 141.681 268.868C141.345 268.532 141.177 268.124 141.177 267.644V264.188C141.177 263.588 141.285 263.024 141.501 262.496C141.741 261.944 142.053 261.476 142.437 261.092C142.821 260.684 143.277 260.372 143.805 260.156C144.333 259.916 144.909 259.796 145.533 259.796H164.613C164.973 259.796 165.285 259.676 165.549 259.436C165.837 259.172 165.981 258.848 165.981 258.464C165.981 258.104 165.837 257.792 165.549 257.528C165.285 257.264 164.973 257.132 164.613 257.132H142.905C142.425 257.132 142.017 256.964 141.681 256.628C141.345 256.292 141.177 255.884 141.177 255.404C141.177 254.924 141.345 254.516 141.681 254.18C142.017 253.844 142.425 253.676 142.905 253.676H164.469C165.141 253.676 165.765 253.808 166.341 254.072C166.941 254.312 167.457 254.648 167.889 255.08C168.345 255.512 168.693 256.016 168.933 256.592C169.197 257.168 169.329 257.792 169.329 258.464C169.329 259.136 169.197 259.76 168.933 260.336C168.693 260.912 168.345 261.416 167.889 261.848C167.457 262.28 166.941 262.628 166.341 262.892C165.765 263.132 165.141 263.252 164.469 263.252H164.325ZM193.587 265.916C194.403 265.916 195.075 265.772 195.603 265.484C196.131 265.172 196.539 264.8 196.827 264.368C197.139 263.936 197.343 263.468 197.439 262.964C197.559 262.436 197.619 261.956 197.619 261.524C197.619 261.092 197.559 260.624 197.439 260.12C197.343 259.592 197.139 259.112 196.827 258.68C196.539 258.248 196.131 257.888 195.603 257.6C195.075 257.288 194.403 257.132 193.587 257.132H179.043C178.203 257.132 177.519 257.288 176.991 257.6C176.487 257.888 176.079 258.248 175.767 258.68C175.479 259.112 175.275 259.592 175.155 260.12C175.059 260.624 175.011 261.092 175.011 261.524C175.011 261.956 175.059 262.436 175.155 262.964C175.275 263.468 175.479 263.936 175.767 264.368C176.079 264.8 176.487 265.172 176.991 265.484C177.519 265.772 178.203 265.916 179.043 265.916H193.587ZM200.967 261.524C200.967 262.436 200.811 263.36 200.499 264.296C200.211 265.208 199.779 266.048 199.203 266.816C198.627 267.56 197.931 268.172 197.115 268.652C196.299 269.132 195.375 269.372 194.343 269.372H177.927C176.943 269.324 176.067 269.06 175.299 268.58C174.531 268.076 173.871 267.452 173.319 266.708C172.791 265.964 172.383 265.136 172.095 264.224C171.807 263.312 171.663 262.412 171.663 261.524C171.663 260.612 171.807 259.7 172.095 258.788C172.407 257.852 172.851 257.012 173.427 256.268C174.003 255.5 174.699 254.876 175.515 254.396C176.331 253.916 177.255 253.676 178.287 253.676H194.703C195.687 253.724 196.563 254 197.331 254.504C198.099 254.984 198.747 255.596 199.275 256.34C199.827 257.084 200.247 257.912 200.535 258.824C200.823 259.736 200.967 260.636 200.967 261.524ZM227.825 255.404C227.825 254.924 227.993 254.516 228.329 254.18C228.665 253.844 229.073 253.676 229.553 253.676C230.033 253.676 230.441 253.844 230.777 254.18C231.113 254.516 231.281 254.924 231.281 255.404V265.88C231.281 266.864 230.945 267.692 230.273 268.364C229.625 269.036 228.809 269.372 227.825 269.372C227.489 269.372 227.153 269.324 226.817 269.228C226.505 269.132 226.217 269 225.953 268.832L209.465 258.752C209.009 258.488 208.625 258.284 208.313 258.14C208.025 257.972 207.785 257.888 207.593 257.888C207.233 257.888 207.005 258.116 206.909 258.572C206.813 259.028 206.765 259.688 206.765 260.552V267.644C206.765 268.124 206.597 268.532 206.261 268.868C205.925 269.204 205.517 269.372 205.037 269.372C204.557 269.372 204.149 269.204 203.813 268.868C203.477 268.532 203.309 268.124 203.309 267.644V257.168C203.309 256.184 203.633 255.356 204.281 254.684C204.953 254.012 205.781 253.676 206.765 253.676C207.101 253.676 207.425 253.724 207.737 253.82C208.073 253.916 208.373 254.048 208.637 254.216L225.125 264.296C225.581 264.56 225.953 264.776 226.241 264.944C226.553 265.088 226.805 265.16 226.997 265.16C227.357 265.16 227.585 264.932 227.681 264.476C227.777 264.02 227.825 263.36 227.825 262.496V255.404ZM255.544 265.916C256.36 265.916 257.032 265.772 257.56 265.484C258.088 265.172 258.496 264.8 258.784 264.368C259.096 263.936 259.3 263.468 259.396 262.964C259.516 262.436 259.576 261.956 259.576 261.524C259.576 261.092 259.516 260.624 259.396 260.12C259.3 259.592 259.096 259.112 258.784 258.68C258.496 258.248 258.088 257.888 257.56 257.6C257.032 257.288 256.36 257.132 255.544 257.132H241C240.16 257.132 239.476 257.288 238.948 257.6C238.444 257.888 238.036 258.248 237.724 258.68C237.436 259.112 237.232 259.592 237.112 260.12C237.016 260.624 236.968 261.092 236.968 261.524C236.968 261.956 237.016 262.436 237.112 262.964C237.232 263.468 237.436 263.936 237.724 264.368C238.036 264.8 238.444 265.172 238.948 265.484C239.476 265.772 240.16 265.916 241 265.916H255.544ZM262.924 261.524C262.924 262.436 262.768 263.36 262.456 264.296C262.168 265.208 261.736 266.048 261.16 266.816C260.584 267.56 259.888 268.172 259.072 268.652C258.256 269.132 257.332 269.372 256.3 269.372H239.884C238.9 269.324 238.024 269.06 237.256 268.58C236.488 268.076 235.828 267.452 235.276 266.708C234.748 265.964 234.34 265.136 234.052 264.224C233.764 263.312 233.62 262.412 233.62 261.524C233.62 260.612 233.764 259.7 234.052 258.788C234.364 257.852 234.808 257.012 235.384 256.268C235.96 255.5 236.656 254.876 237.472 254.396C238.288 253.916 239.212 253.676 240.244 253.676H256.66C257.644 253.724 258.52 254 259.288 254.504C260.056 254.984 260.704 255.596 261.232 256.34C261.784 257.084 262.204 257.912 262.492 258.824C262.78 259.736 262.924 260.636 262.924 261.524ZM295.65 267.644C295.65 268.124 295.482 268.532 295.146 268.868C294.81 269.204 294.402 269.372 293.922 269.372C293.442 269.372 293.034 269.204 292.698 268.868C292.362 268.532 292.194 268.124 292.194 267.644V259.796C292.194 258.812 292.134 258.32 292.014 258.32C291.918 258.32 291.582 258.644 291.006 259.292L283.086 268.292C282.774 268.652 282.39 268.928 281.934 269.12C281.478 269.288 280.986 269.372 280.458 269.372C279.93 269.372 279.438 269.288 278.982 269.12C278.526 268.928 278.142 268.652 277.83 268.292L269.91 259.292C269.358 258.644 269.022 258.32 268.902 258.32C268.782 258.32 268.722 258.812 268.722 259.796V267.644C268.722 268.124 268.554 268.532 268.218 268.868C267.882 269.204 267.474 269.372 266.994 269.372C266.514 269.372 266.106 269.204 265.77 268.868C265.434 268.532 265.266 268.124 265.266 267.644V257.132C265.266 256.172 265.542 255.356 266.094 254.684C266.646 254.012 267.402 253.676 268.362 253.676C268.938 253.676 269.454 253.82 269.91 254.108C270.366 254.396 270.786 254.744 271.17 255.152L279.45 264.584C279.57 264.704 279.714 264.836 279.882 264.98C280.074 265.1 280.266 265.16 280.458 265.16C280.65 265.16 280.83 265.1 280.998 264.98C281.19 264.836 281.346 264.704 281.466 264.584L289.71 255.152H289.746C290.082 254.696 290.49 254.336 290.97 254.072C291.45 253.808 291.978 253.676 292.554 253.676C293.514 253.676 294.27 254.012 294.822 254.684C295.374 255.356 295.65 256.172 295.65 257.132V267.644ZM314.202 267.644C314.202 268.124 314.034 268.532 313.698 268.868C313.362 269.204 312.954 269.372 312.474 269.372C311.994 269.372 311.586 269.204 311.25 268.868C310.914 268.532 310.746 268.124 310.746 267.644V263.252C309.834 263.252 308.946 263.132 308.082 262.892C307.218 262.652 306.306 262.28 305.346 261.776C304.41 261.248 303.402 260.576 302.322 259.76C301.242 258.944 300.03 257.948 298.686 256.772C298.494 256.604 298.326 256.4 298.182 256.16C298.062 255.92 298.002 255.668 298.002 255.404C298.002 254.924 298.17 254.516 298.506 254.18C298.842 253.844 299.25 253.676 299.73 253.676C299.97 253.676 300.186 253.724 300.378 253.82C300.57 253.916 300.762 254.036 300.954 254.18C302.49 255.524 303.774 256.58 304.806 257.348C305.862 258.092 306.798 258.644 307.614 259.004C308.454 259.364 309.246 259.592 309.99 259.688C310.734 259.76 311.574 259.796 312.51 259.796C313.446 259.796 314.274 259.76 314.994 259.688C315.714 259.616 316.482 259.4 317.298 259.04C318.114 258.68 319.038 258.128 320.07 257.384C321.126 256.616 322.434 255.548 323.994 254.18C324.402 253.844 324.81 253.676 325.218 253.676C325.698 253.676 326.106 253.844 326.442 254.18C326.778 254.516 326.946 254.924 326.946 255.404C326.946 255.668 326.874 255.92 326.73 256.16C326.61 256.4 326.454 256.604 326.262 256.772C324.942 257.924 323.73 258.92 322.626 259.76C321.522 260.576 320.478 261.248 319.494 261.776C318.534 262.28 317.61 262.652 316.722 262.892C315.858 263.132 315.018 263.252 314.202 263.252V267.644ZM349.032 263.252C348.36 263.252 347.736 263.132 347.16 262.892C346.584 262.628 346.08 262.28 345.648 261.848C345.216 261.416 344.868 260.912 344.604 260.336C344.364 259.76 344.244 259.136 344.244 258.464C344.244 257.792 344.364 257.168 344.604 256.592C344.868 256.016 345.216 255.512 345.648 255.08C346.08 254.648 346.584 254.312 347.16 254.072C347.736 253.808 348.36 253.676 349.032 253.676H370.884C371.364 253.676 371.772 253.844 372.108 254.18C372.444 254.516 372.612 254.924 372.612 255.404C372.612 255.884 372.444 256.292 372.108 256.628C371.772 256.964 371.364 257.132 370.884 257.132H348.96C348.6 257.132 348.276 257.264 347.988 257.528C347.724 257.768 347.592 258.08 347.592 258.464C347.592 258.824 347.724 259.136 347.988 259.4C348.276 259.664 348.6 259.796 348.96 259.796H368.868C369.54 259.796 370.164 259.928 370.74 260.192C371.34 260.432 371.856 260.768 372.288 261.2C372.72 261.632 373.056 262.148 373.296 262.748C373.56 263.324 373.692 263.948 373.692 264.62C373.692 265.292 373.56 265.916 373.296 266.492C373.056 267.068 372.72 267.572 372.288 268.004C371.856 268.436 371.34 268.772 370.74 269.012C370.164 269.252 369.54 269.372 368.868 269.372H347.052C346.572 269.372 346.164 269.204 345.828 268.868C345.492 268.532 345.324 268.124 345.324 267.644C345.324 267.164 345.492 266.756 345.828 266.42C346.164 266.084 346.572 265.916 347.052 265.916H369.012C369.372 265.916 369.684 265.796 369.948 265.556C370.212 265.292 370.344 264.98 370.344 264.62C370.344 264.236 370.212 263.912 369.948 263.648C369.684 263.384 369.372 263.252 369.012 263.252H349.032ZM397.955 265.916C398.771 265.916 399.443 265.772 399.971 265.484C400.499 265.172 400.907 264.8 401.195 264.368C401.507 263.936 401.711 263.468 401.807 262.964C401.927 262.436 401.987 261.956 401.987 261.524C401.987 261.092 401.927 260.624 401.807 260.12C401.711 259.592 401.507 259.112 401.195 258.68C400.907 258.248 400.499 257.888 399.971 257.6C399.443 257.288 398.771 257.132 397.955 257.132H383.411C382.571 257.132 381.887 257.288 381.359 257.6C380.855 257.888 380.447 258.248 380.135 258.68C379.847 259.112 379.643 259.592 379.523 260.12C379.427 260.624 379.379 261.092 379.379 261.524C379.379 261.956 379.427 262.436 379.523 262.964C379.643 263.468 379.847 263.936 380.135 264.368C380.447 264.8 380.855 265.172 381.359 265.484C381.887 265.772 382.571 265.916 383.411 265.916H397.955ZM405.335 261.524C405.335 262.436 405.179 263.36 404.867 264.296C404.579 265.208 404.147 266.048 403.571 266.816C402.995 267.56 402.299 268.172 401.483 268.652C400.667 269.132 399.743 269.372 398.711 269.372H382.295C381.311 269.324 380.435 269.06 379.667 268.58C378.899 268.076 378.239 267.452 377.687 266.708C377.159 265.964 376.751 265.136 376.463 264.224C376.175 263.312 376.031 262.412 376.031 261.524C376.031 260.612 376.175 259.7 376.463 258.788C376.775 257.852 377.219 257.012 377.795 256.268C378.371 255.5 379.067 254.876 379.883 254.396C380.699 253.916 381.623 253.676 382.655 253.676H399.071C400.055 253.724 400.931 254 401.699 254.504C402.467 254.984 403.115 255.596 403.643 256.34C404.195 257.084 404.615 257.912 404.903 258.824C405.191 259.736 405.335 260.636 405.335 261.524ZM407.677 261.524C407.677 260.612 407.821 259.7 408.109 258.788C408.421 257.852 408.865 257.012 409.441 256.268C410.017 255.5 410.713 254.876 411.529 254.396C412.345 253.916 413.269 253.676 414.301 253.676H435.289C435.769 253.676 436.177 253.844 436.513 254.18C436.849 254.516 437.017 254.924 437.017 255.404C437.017 255.884 436.849 256.292 436.513 256.628C436.177 256.964 435.769 257.132 435.289 257.132H415.057C414.217 257.132 413.533 257.288 413.005 257.6C412.501 257.888 412.093 258.248 411.781 258.68C411.493 259.112 411.289 259.592 411.169 260.12C411.073 260.624 411.025 261.092 411.025 261.524C411.025 261.956 411.073 262.436 411.169 262.964C411.289 263.468 411.493 263.936 411.781 264.368C412.093 264.8 412.501 265.172 413.005 265.484C413.533 265.772 414.217 265.916 415.057 265.916H435.289C435.769 265.916 436.177 266.084 436.513 266.42C436.849 266.756 437.017 267.164 437.017 267.644C437.017 268.124 436.849 268.532 436.513 268.868C436.177 269.204 435.769 269.372 435.289 269.372H413.941C412.957 269.372 412.081 269.132 411.313 268.652C410.545 268.172 409.885 267.56 409.333 266.816C408.805 266.048 408.397 265.196 408.109 264.26C407.821 263.324 407.677 262.412 407.677 261.524ZM442.814 267.644C442.814 268.124 442.646 268.532 442.31 268.868C441.974 269.204 441.566 269.372 441.086 269.372C440.606 269.372 440.198 269.204 439.862 268.868C439.526 268.532 439.358 268.124 439.358 267.644V255.404C439.358 254.924 439.526 254.516 439.862 254.18C440.198 253.844 440.606 253.676 441.086 253.676C441.566 253.676 441.974 253.844 442.31 254.18C442.646 254.516 442.814 254.924 442.814 255.404V267.644ZM445.165 255.404C445.165 254.924 445.333 254.516 445.669 254.18C446.005 253.844 446.413 253.676 446.893 253.676H472.417C472.897 253.676 473.305 253.844 473.641 254.18C473.977 254.516 474.145 254.924 474.145 255.404C474.145 255.884 473.977 256.292 473.641 256.628C473.305 256.964 472.897 257.132 472.417 257.132H446.893C446.413 257.132 446.005 256.964 445.669 256.628C445.333 256.292 445.165 255.884 445.165 255.404ZM449.557 269.372C449.029 269.372 448.501 269.264 447.973 269.048C447.445 268.808 446.977 268.484 446.569 268.076C446.161 267.668 445.825 267.176 445.561 266.6C445.297 266.024 445.165 265.376 445.165 264.656V261.416C445.165 260.768 445.345 260.336 445.705 260.12C446.089 259.904 446.677 259.796 447.469 259.796H471.625C472.105 259.796 472.513 259.964 472.849 260.3C473.185 260.636 473.353 261.044 473.353 261.524C473.353 262.004 473.185 262.412 472.849 262.748C472.513 263.084 472.105 263.252 471.625 263.252H448.621V265.016C448.621 265.256 448.717 265.472 448.909 265.664C449.125 265.832 449.401 265.916 449.737 265.916H472.417C472.897 265.916 473.305 266.084 473.641 266.42C473.977 266.756 474.145 267.164 474.145 267.644C474.145 268.124 473.977 268.532 473.641 268.868C473.305 269.204 472.897 269.372 472.417 269.372H449.557ZM502.991 253.676C503.471 253.676 503.879 253.844 504.215 254.18C504.551 254.516 504.719 254.924 504.719 255.404C504.719 255.884 504.551 256.292 504.215 256.628C503.879 256.964 503.471 257.132 502.991 257.132H492.335V267.644C492.335 268.124 492.167 268.532 491.831 268.868C491.495 269.204 491.087 269.372 490.607 269.372C490.127 269.372 489.719 269.204 489.383 268.868C489.047 268.532 488.879 268.124 488.879 267.644V257.132H478.079C477.647 257.084 477.275 256.904 476.963 256.592C476.651 256.256 476.495 255.86 476.495 255.404C476.495 254.924 476.663 254.516 476.999 254.18C477.335 253.844 477.743 253.676 478.223 253.676H502.991ZM523.251 267.644C523.251 268.124 523.083 268.532 522.747 268.868C522.411 269.204 522.003 269.372 521.523 269.372C521.043 269.372 520.635 269.204 520.299 268.868C519.963 268.532 519.795 268.124 519.795 267.644V263.252C518.883 263.252 517.995 263.132 517.131 262.892C516.267 262.652 515.355 262.28 514.395 261.776C513.459 261.248 512.451 260.576 511.371 259.76C510.291 258.944 509.079 257.948 507.735 256.772C507.543 256.604 507.375 256.4 507.231 256.16C507.111 255.92 507.051 255.668 507.051 255.404C507.051 254.924 507.219 254.516 507.555 254.18C507.891 253.844 508.299 253.676 508.779 253.676C509.019 253.676 509.235 253.724 509.427 253.82C509.619 253.916 509.811 254.036 510.003 254.18C511.539 255.524 512.823 256.58 513.855 257.348C514.911 258.092 515.847 258.644 516.663 259.004C517.503 259.364 518.295 259.592 519.039 259.688C519.783 259.76 520.623 259.796 521.559 259.796C522.495 259.796 523.323 259.76 524.043 259.688C524.763 259.616 525.531 259.4 526.347 259.04C527.163 258.68 528.087 258.128 529.119 257.384C530.175 256.616 531.483 255.548 533.043 254.18C533.451 253.844 533.859 253.676 534.267 253.676C534.747 253.676 535.155 253.844 535.491 254.18C535.827 254.516 535.995 254.924 535.995 255.404C535.995 255.668 535.923 255.92 535.779 256.16C535.659 256.4 535.503 256.604 535.311 256.772C533.991 257.924 532.779 258.92 531.675 259.76C530.571 260.576 529.527 261.248 528.543 261.776C527.583 262.28 526.659 262.652 525.771 262.892C524.907 263.132 524.067 263.252 523.251 263.252V267.644ZM579.753 259.796C580.233 259.796 580.641 259.964 580.977 260.3C581.313 260.636 581.481 261.044 581.481 261.524C581.481 262.004 581.313 262.412 580.977 262.748C580.641 263.084 580.233 263.252 579.753 263.252H561.105C560.625 263.252 560.217 263.084 559.881 262.748C559.545 262.412 559.377 262.004 559.377 261.524C559.377 261.044 559.545 260.636 559.881 260.3C560.217 259.964 560.625 259.796 561.105 259.796H579.753ZM553.329 261.524C553.329 260.612 553.473 259.7 553.761 258.788C554.073 257.852 554.517 257.012 555.093 256.268C555.669 255.5 556.365 254.876 557.181 254.396C557.997 253.916 558.921 253.676 559.953 253.676H580.581C581.061 253.676 581.469 253.844 581.805 254.18C582.141 254.516 582.309 254.924 582.309 255.404C582.309 255.884 582.141 256.292 581.805 256.628C581.469 256.964 581.061 257.132 580.581 257.132H560.709C559.917 257.132 559.269 257.264 558.765 257.528C558.261 257.792 557.865 258.14 557.577 258.572C557.289 258.98 557.085 259.424 556.965 259.904C556.869 260.384 556.809 260.84 556.785 261.272V267.644C556.785 268.124 556.617 268.532 556.281 268.868C555.945 269.204 555.537 269.372 555.057 269.372C554.577 269.372 554.169 269.204 553.833 268.868C553.497 268.532 553.329 268.124 553.329 267.644V261.524ZM589.411 263.252C588.739 263.252 588.115 263.132 587.539 262.892C586.963 262.628 586.459 262.28 586.027 261.848C585.595 261.416 585.247 260.912 584.983 260.336C584.743 259.76 584.623 259.136 584.623 258.464C584.623 257.792 584.743 257.168 584.983 256.592C585.247 256.016 585.595 255.512 586.027 255.08C586.459 254.648 586.963 254.312 587.539 254.072C588.115 253.808 588.739 253.676 589.411 253.676H611.263C611.743 253.676 612.151 253.844 612.487 254.18C612.823 254.516 612.991 254.924 612.991 255.404C612.991 255.884 612.823 256.292 612.487 256.628C612.151 256.964 611.743 257.132 611.263 257.132H589.339C588.979 257.132 588.655 257.264 588.367 257.528C588.103 257.768 587.971 258.08 587.971 258.464C587.971 258.824 588.103 259.136 588.367 259.4C588.655 259.664 588.979 259.796 589.339 259.796H609.247C609.919 259.796 610.543 259.928 611.119 260.192C611.719 260.432 612.235 260.768 612.667 261.2C613.099 261.632 613.435 262.148 613.675 262.748C613.939 263.324 614.071 263.948 614.071 264.62C614.071 265.292 613.939 265.916 613.675 266.492C613.435 267.068 613.099 267.572 612.667 268.004C612.235 268.436 611.719 268.772 611.119 269.012C610.543 269.252 609.919 269.372 609.247 269.372H587.431C586.951 269.372 586.543 269.204 586.207 268.868C585.871 268.532 585.703 268.124 585.703 267.644C585.703 267.164 585.871 266.756 586.207 266.42C586.543 266.084 586.951 265.916 587.431 265.916H609.391C609.751 265.916 610.063 265.796 610.327 265.556C610.591 265.292 610.723 264.98 610.723 264.62C610.723 264.236 610.591 263.912 610.327 263.648C610.063 263.384 609.751 263.252 609.391 263.252H589.411ZM627.065 265.484C627.065 264.86 627.281 264.332 627.713 263.9C628.145 263.468 628.673 263.252 629.297 263.252C629.921 263.252 630.449 263.468 630.881 263.9C631.313 264.332 631.529 264.86 631.529 265.484C631.529 266.108 631.313 266.636 630.881 267.068C630.449 267.5 629.921 267.716 629.297 267.716C628.673 267.716 628.145 267.5 627.713 267.068C627.281 266.636 627.065 266.108 627.065 265.484ZM619.469 268.724C619.109 269.156 618.665 269.372 618.137 269.372C617.657 269.372 617.249 269.204 616.913 268.868C616.577 268.532 616.409 268.124 616.409 267.644C616.409 267.212 616.529 266.864 616.769 266.6L625.517 254.828C625.925 254.276 626.465 253.832 627.137 253.496C627.809 253.136 628.529 252.956 629.297 252.956C630.017 252.956 630.701 253.112 631.349 253.424C631.997 253.736 632.525 254.168 632.933 254.72L641.681 266.42C641.825 266.588 641.945 266.78 642.041 266.996C642.137 267.188 642.185 267.404 642.185 267.644C642.185 268.124 642.017 268.532 641.681 268.868C641.345 269.204 640.937 269.372 640.457 269.372C639.881 269.372 639.425 269.144 639.089 268.688L630.701 257.492C630.533 257.3 630.317 257.096 630.053 256.88C629.813 256.64 629.561 256.52 629.297 256.52C629.033 256.52 628.769 256.64 628.505 256.88C628.265 257.096 628.073 257.3 627.929 257.492L619.469 268.724Z" fill="black"/>
<circle cx="597.5" cy="193.129" r="60.5" fill="white"/>
<circle cx="597.5" cy="193.129" r="45.5" fill="black"/>
<circle cx="597.5" cy="193.129" r="32.5" fill="white"/>
<path d="M562 209.129C550 182.129 513 115.629 488 86.1294C529.167 95.7961 607.7 140.829 628.5 169.629" stroke="black" stroke-width="12.7" stroke-linecap="round"/>
<path d="M451 67.6119C329 16.6119 103.5 70.6294 55 227.129" stroke="black" stroke-width="12.7" stroke-linecap="round"/>
</svg>
