<svg width="691" height="324" viewBox="0 0 691 324" fill="none" xmlns="http://www.w3.org/2000/svg">
<rect width="691" height="324" rx="26" fill="black"/>
<path d="M123.205 219.418C123.205 217.148 123.991 215.226 125.563 213.654C127.135 212.082 129.056 211.296 131.327 211.296C133.598 211.296 135.519 212.082 137.091 213.654C138.663 215.226 139.449 217.148 139.449 219.418C139.449 221.689 138.663 223.61 137.091 225.182C135.519 226.754 133.598 227.54 131.327 227.54C129.056 227.54 127.135 226.754 125.563 225.182C123.991 223.61 123.205 221.689 123.205 219.418ZM95.5639 231.208C94.2539 232.78 92.6382 233.566 90.7169 233.566C88.9702 233.566 87.4856 232.955 86.2629 231.732C85.0402 230.51 84.4289 229.025 84.4289 227.278C84.4289 225.706 84.8656 224.44 85.7389 223.479L117.572 180.642C119.057 178.634 121.022 177.018 123.467 175.795C125.912 174.485 128.532 173.83 131.327 173.83C133.947 173.83 136.436 174.398 138.794 175.533C141.152 176.669 143.073 178.241 144.558 180.249L176.391 222.824C176.915 223.436 177.352 224.134 177.701 224.92C178.05 225.619 178.225 226.405 178.225 227.278C178.225 229.025 177.614 230.51 176.391 231.732C175.168 232.955 173.684 233.566 171.937 233.566C169.841 233.566 168.182 232.737 166.959 231.077L136.436 190.336C135.825 189.638 135.039 188.895 134.078 188.109C133.205 187.236 132.288 186.799 131.327 186.799C130.366 186.799 129.406 187.236 128.445 188.109C127.572 188.895 126.873 189.638 126.349 190.336L95.5639 231.208ZM208.801 211.296C206.356 211.296 204.085 210.86 201.989 209.986C199.893 209.026 198.059 207.759 196.487 206.187C194.915 204.615 193.649 202.781 192.688 200.685C191.815 198.589 191.378 196.319 191.378 193.873C191.378 191.428 191.815 189.157 192.688 187.061C193.649 184.965 194.915 183.131 196.487 181.559C198.059 179.987 199.893 178.765 201.989 177.891C204.085 176.931 206.356 176.45 208.801 176.45H288.318C290.065 176.45 291.549 177.062 292.772 178.284C293.995 179.507 294.606 180.992 294.606 182.738C294.606 184.485 293.995 185.97 292.772 187.192C291.549 188.415 290.065 189.026 288.318 189.026H208.539C207.229 189.026 206.05 189.507 205.002 190.467C204.041 191.341 203.561 192.476 203.561 193.873C203.561 195.183 204.041 196.319 205.002 197.279C206.05 198.24 207.229 198.72 208.539 198.72H280.982C283.427 198.72 285.698 199.201 287.794 200.161C289.977 201.035 291.855 202.257 293.427 203.829C294.999 205.401 296.222 207.279 297.095 209.462C298.056 211.558 298.536 213.829 298.536 216.274C298.536 218.72 298.056 220.99 297.095 223.086C296.222 225.182 294.999 227.016 293.427 228.588C291.855 230.16 289.977 231.383 287.794 232.256C285.698 233.13 283.427 233.566 280.982 233.566H201.596C199.849 233.566 198.365 232.955 197.142 231.732C195.919 230.51 195.308 229.025 195.308 227.278C195.308 225.532 195.919 224.047 197.142 222.824C198.365 221.602 199.849 220.99 201.596 220.99H281.506C282.816 220.99 283.951 220.554 284.912 219.68C285.873 218.72 286.353 217.584 286.353 216.274C286.353 214.877 285.873 213.698 284.912 212.737C283.951 211.777 282.816 211.296 281.506 211.296H208.801ZM408.048 176.45C409.795 176.45 411.279 177.062 412.502 178.284C413.725 179.507 414.336 180.992 414.336 182.738C414.336 184.485 413.725 185.97 412.502 187.192C411.279 188.415 409.795 189.026 408.048 189.026H369.272V227.278C369.272 229.025 368.661 230.51 367.438 231.732C366.215 232.955 364.731 233.566 362.984 233.566C361.237 233.566 359.753 232.955 358.53 231.732C357.307 230.51 356.696 229.025 356.696 227.278V189.026H317.396C315.824 188.852 314.47 188.197 313.335 187.061C312.2 185.839 311.632 184.398 311.632 182.738C311.632 180.992 312.243 179.507 313.466 178.284C314.689 177.062 316.173 176.45 317.92 176.45H408.048ZM511.641 211.296C513.999 212.781 516.401 214.397 518.846 216.143C521.292 217.803 523.781 219.637 526.313 221.645C527.274 222.344 528.104 223.174 528.802 224.134C529.501 225.008 529.85 226.056 529.85 227.278C529.85 229.025 529.239 230.51 528.016 231.732C526.794 232.955 525.309 233.566 523.562 233.566C522.078 233.566 520.593 232.955 519.108 231.732C515.528 229.112 511.86 226.58 508.104 224.134C504.349 221.689 500.419 219.506 496.314 217.584C492.297 215.663 488.105 214.135 483.738 212.999C479.372 211.864 474.83 211.296 470.114 211.296H444.045C442.91 211.471 441.949 211.995 441.163 212.868C440.377 213.742 439.984 214.833 439.984 216.143V227.278C439.984 229.025 439.329 230.51 438.019 231.732C436.797 232.955 435.356 233.566 433.696 233.566C431.95 233.566 430.465 232.955 429.242 231.732C428.02 230.51 427.408 229.025 427.408 227.278V214.702C427.408 212.519 427.801 210.467 428.587 208.545C429.461 206.537 430.596 204.834 431.993 203.436C433.391 201.952 435.05 200.816 436.971 200.03C438.893 199.157 440.989 198.72 443.259 198.72H512.689C513.999 198.72 515.135 198.284 516.095 197.41C517.143 196.45 517.667 195.271 517.667 193.873C517.667 192.563 517.143 191.428 516.095 190.467C515.135 189.507 513.999 189.026 512.689 189.026H433.696C431.95 189.026 430.465 188.415 429.242 187.192C428.02 185.97 427.408 184.485 427.408 182.738C427.408 180.992 428.02 179.507 429.242 178.284C430.465 177.062 431.95 176.45 433.696 176.45H512.165C514.611 176.45 516.881 176.931 518.977 177.891C521.161 178.765 523.038 179.987 524.61 181.559C526.27 183.131 527.536 184.965 528.409 187.061C529.37 189.157 529.85 191.428 529.85 193.873C529.85 196.319 529.37 198.589 528.409 200.685C527.536 202.781 526.27 204.615 524.61 206.187C523.038 207.759 521.161 209.026 518.977 209.986C516.881 210.86 514.611 211.296 512.165 211.296H511.641ZM622.708 220.99C625.677 220.99 628.123 220.466 630.044 219.418C631.965 218.283 633.45 216.929 634.498 215.357C635.633 213.785 636.376 212.082 636.725 210.248C637.162 208.327 637.38 206.58 637.38 205.008C637.38 203.436 637.162 201.733 636.725 199.899C636.376 197.978 635.633 196.231 634.498 194.659C633.45 193.087 631.965 191.777 630.044 190.729C628.123 189.594 625.677 189.026 622.708 189.026H569.784C566.727 189.026 564.238 189.594 562.317 190.729C560.483 191.777 558.998 193.087 557.863 194.659C556.815 196.231 556.073 197.978 555.636 199.899C555.287 201.733 555.112 203.436 555.112 205.008C555.112 206.58 555.287 208.327 555.636 210.248C556.073 212.082 556.815 213.785 557.863 215.357C558.998 216.929 560.483 218.283 562.317 219.418C564.238 220.466 566.727 220.99 569.784 220.99H622.708ZM649.563 205.008C649.563 208.327 648.995 211.689 647.86 215.095C646.812 218.414 645.24 221.471 643.144 224.265C641.048 226.973 638.515 229.2 635.546 230.946C632.577 232.693 629.214 233.566 625.459 233.566H565.723C562.142 233.392 558.955 232.431 556.16 230.684C553.365 228.85 550.964 226.58 548.955 223.872C547.034 221.165 545.549 218.152 544.501 214.833C543.453 211.515 542.929 208.24 542.929 205.008C542.929 201.69 543.453 198.371 544.501 195.052C545.636 191.646 547.252 188.59 549.348 185.882C551.444 183.088 553.977 180.817 556.946 179.07C559.915 177.324 563.278 176.45 567.033 176.45H626.769C630.35 176.625 633.537 177.629 636.332 179.463C639.127 181.21 641.485 183.437 643.406 186.144C645.415 188.852 646.943 191.865 647.991 195.183C649.039 198.502 649.563 201.777 649.563 205.008Z" fill="white"/>
<path d="M61.3591 268.484C61.3591 267.86 61.5751 267.332 62.0071 266.9C62.4391 266.468 62.9671 266.252 63.5911 266.252C64.2151 266.252 64.7431 266.468 65.1751 266.9C65.6071 267.332 65.8231 267.86 65.8231 268.484C65.8231 269.108 65.6071 269.636 65.1751 270.068C64.7431 270.5 64.2151 270.716 63.5911 270.716C62.9671 270.716 62.4391 270.5 62.0071 270.068C61.5751 269.636 61.3591 269.108 61.3591 268.484ZM53.7631 271.724C53.4031 272.156 52.9591 272.372 52.4311 272.372C51.9511 272.372 51.5431 272.204 51.2071 271.868C50.8711 271.532 50.7031 271.124 50.7031 270.644C50.7031 270.212 50.8231 269.864 51.0631 269.6L59.8111 257.828C60.2191 257.276 60.7591 256.832 61.4311 256.496C62.1031 256.136 62.8231 255.956 63.5911 255.956C64.3111 255.956 64.9951 256.112 65.6431 256.424C66.2911 256.736 66.8191 257.168 67.2271 257.72L75.9751 269.42C76.1191 269.588 76.2391 269.78 76.3351 269.996C76.4311 270.188 76.4791 270.404 76.4791 270.644C76.4791 271.124 76.3111 271.532 75.9751 271.868C75.6391 272.204 75.2311 272.372 74.7511 272.372C74.1751 272.372 73.7191 272.144 73.3831 271.688L64.9951 260.492C64.8271 260.3 64.6111 260.096 64.3471 259.88C64.1071 259.64 63.8551 259.52 63.5911 259.52C63.3271 259.52 63.0631 259.64 62.7991 259.88C62.5591 260.096 62.3671 260.3 62.2231 260.492L53.7631 271.724ZM83.6218 266.252C82.9498 266.252 82.3258 266.132 81.7498 265.892C81.1738 265.628 80.6698 265.28 80.2378 264.848C79.8058 264.416 79.4578 263.912 79.1938 263.336C78.9538 262.76 78.8338 262.136 78.8338 261.464C78.8338 260.792 78.9538 260.168 79.1938 259.592C79.4578 259.016 79.8058 258.512 80.2378 258.08C80.6698 257.648 81.1738 257.312 81.7498 257.072C82.3258 256.808 82.9498 256.676 83.6218 256.676H105.474C105.954 256.676 106.362 256.844 106.698 257.18C107.034 257.516 107.202 257.924 107.202 258.404C107.202 258.884 107.034 259.292 106.698 259.628C106.362 259.964 105.954 260.132 105.474 260.132H83.5498C83.1898 260.132 82.8658 260.264 82.5778 260.528C82.3138 260.768 82.1818 261.08 82.1818 261.464C82.1818 261.824 82.3138 262.136 82.5778 262.4C82.8658 262.664 83.1898 262.796 83.5498 262.796H103.458C104.13 262.796 104.754 262.928 105.33 263.192C105.93 263.432 106.446 263.768 106.878 264.2C107.31 264.632 107.646 265.148 107.886 265.748C108.15 266.324 108.282 266.948 108.282 267.62C108.282 268.292 108.15 268.916 107.886 269.492C107.646 270.068 107.31 270.572 106.878 271.004C106.446 271.436 105.93 271.772 105.33 272.012C104.754 272.252 104.13 272.372 103.458 272.372H81.6418C81.1618 272.372 80.7538 272.204 80.4178 271.868C80.0818 271.532 79.9138 271.124 79.9138 270.644C79.9138 270.164 80.0818 269.756 80.4178 269.42C80.7538 269.084 81.1618 268.916 81.6418 268.916H103.602C103.962 268.916 104.274 268.796 104.538 268.556C104.802 268.292 104.934 267.98 104.934 267.62C104.934 267.236 104.802 266.912 104.538 266.648C104.274 266.384 103.962 266.252 103.602 266.252H83.6218ZM137.117 256.676C137.597 256.676 138.005 256.844 138.341 257.18C138.677 257.516 138.845 257.924 138.845 258.404C138.845 258.884 138.677 259.292 138.341 259.628C138.005 259.964 137.597 260.132 137.117 260.132H126.461V270.644C126.461 271.124 126.293 271.532 125.957 271.868C125.621 272.204 125.213 272.372 124.733 272.372C124.253 272.372 123.845 272.204 123.509 271.868C123.173 271.532 123.005 271.124 123.005 270.644V260.132H112.205C111.773 260.084 111.401 259.904 111.089 259.592C110.777 259.256 110.621 258.86 110.621 258.404C110.621 257.924 110.789 257.516 111.125 257.18C111.461 256.844 111.869 256.676 112.349 256.676H137.117ZM164.325 266.252C164.973 266.66 165.633 267.104 166.305 267.584C166.977 268.04 167.661 268.544 168.357 269.096C168.621 269.288 168.849 269.516 169.041 269.78C169.233 270.02 169.329 270.308 169.329 270.644C169.329 271.124 169.161 271.532 168.825 271.868C168.489 272.204 168.081 272.372 167.601 272.372C167.193 272.372 166.785 272.204 166.377 271.868C165.393 271.148 164.385 270.452 163.353 269.78C162.321 269.108 161.241 268.508 160.113 267.98C159.009 267.452 157.857 267.032 156.657 266.72C155.457 266.408 154.209 266.252 152.913 266.252H145.749C145.437 266.3 145.173 266.444 144.957 266.684C144.741 266.924 144.633 267.224 144.633 267.584V270.644C144.633 271.124 144.453 271.532 144.093 271.868C143.757 272.204 143.361 272.372 142.905 272.372C142.425 272.372 142.017 272.204 141.681 271.868C141.345 271.532 141.177 271.124 141.177 270.644V267.188C141.177 266.588 141.285 266.024 141.501 265.496C141.741 264.944 142.053 264.476 142.437 264.092C142.821 263.684 143.277 263.372 143.805 263.156C144.333 262.916 144.909 262.796 145.533 262.796H164.613C164.973 262.796 165.285 262.676 165.549 262.436C165.837 262.172 165.981 261.848 165.981 261.464C165.981 261.104 165.837 260.792 165.549 260.528C165.285 260.264 164.973 260.132 164.613 260.132H142.905C142.425 260.132 142.017 259.964 141.681 259.628C141.345 259.292 141.177 258.884 141.177 258.404C141.177 257.924 141.345 257.516 141.681 257.18C142.017 256.844 142.425 256.676 142.905 256.676H164.469C165.141 256.676 165.765 256.808 166.341 257.072C166.941 257.312 167.457 257.648 167.889 258.08C168.345 258.512 168.693 259.016 168.933 259.592C169.197 260.168 169.329 260.792 169.329 261.464C169.329 262.136 169.197 262.76 168.933 263.336C168.693 263.912 168.345 264.416 167.889 264.848C167.457 265.28 166.941 265.628 166.341 265.892C165.765 266.132 165.141 266.252 164.469 266.252H164.325ZM193.587 268.916C194.403 268.916 195.075 268.772 195.603 268.484C196.131 268.172 196.539 267.8 196.827 267.368C197.139 266.936 197.343 266.468 197.439 265.964C197.559 265.436 197.619 264.956 197.619 264.524C197.619 264.092 197.559 263.624 197.439 263.12C197.343 262.592 197.139 262.112 196.827 261.68C196.539 261.248 196.131 260.888 195.603 260.6C195.075 260.288 194.403 260.132 193.587 260.132H179.043C178.203 260.132 177.519 260.288 176.991 260.6C176.487 260.888 176.079 261.248 175.767 261.68C175.479 262.112 175.275 262.592 175.155 263.12C175.059 263.624 175.011 264.092 175.011 264.524C175.011 264.956 175.059 265.436 175.155 265.964C175.275 266.468 175.479 266.936 175.767 267.368C176.079 267.8 176.487 268.172 176.991 268.484C177.519 268.772 178.203 268.916 179.043 268.916H193.587ZM200.967 264.524C200.967 265.436 200.811 266.36 200.499 267.296C200.211 268.208 199.779 269.048 199.203 269.816C198.627 270.56 197.931 271.172 197.115 271.652C196.299 272.132 195.375 272.372 194.343 272.372H177.927C176.943 272.324 176.067 272.06 175.299 271.58C174.531 271.076 173.871 270.452 173.319 269.708C172.791 268.964 172.383 268.136 172.095 267.224C171.807 266.312 171.663 265.412 171.663 264.524C171.663 263.612 171.807 262.7 172.095 261.788C172.407 260.852 172.851 260.012 173.427 259.268C174.003 258.5 174.699 257.876 175.515 257.396C176.331 256.916 177.255 256.676 178.287 256.676H194.703C195.687 256.724 196.563 257 197.331 257.504C198.099 257.984 198.747 258.596 199.275 259.34C199.827 260.084 200.247 260.912 200.535 261.824C200.823 262.736 200.967 263.636 200.967 264.524ZM227.825 258.404C227.825 257.924 227.993 257.516 228.329 257.18C228.665 256.844 229.073 256.676 229.553 256.676C230.033 256.676 230.441 256.844 230.777 257.18C231.113 257.516 231.281 257.924 231.281 258.404V268.88C231.281 269.864 230.945 270.692 230.273 271.364C229.625 272.036 228.809 272.372 227.825 272.372C227.489 272.372 227.153 272.324 226.817 272.228C226.505 272.132 226.217 272 225.953 271.832L209.465 261.752C209.009 261.488 208.625 261.284 208.313 261.14C208.025 260.972 207.785 260.888 207.593 260.888C207.233 260.888 207.005 261.116 206.909 261.572C206.813 262.028 206.765 262.688 206.765 263.552V270.644C206.765 271.124 206.597 271.532 206.261 271.868C205.925 272.204 205.517 272.372 205.037 272.372C204.557 272.372 204.149 272.204 203.813 271.868C203.477 271.532 203.309 271.124 203.309 270.644V260.168C203.309 259.184 203.633 258.356 204.281 257.684C204.953 257.012 205.781 256.676 206.765 256.676C207.101 256.676 207.425 256.724 207.737 256.82C208.073 256.916 208.373 257.048 208.637 257.216L225.125 267.296C225.581 267.56 225.953 267.776 226.241 267.944C226.553 268.088 226.805 268.16 226.997 268.16C227.357 268.16 227.585 267.932 227.681 267.476C227.777 267.02 227.825 266.36 227.825 265.496V258.404ZM255.544 268.916C256.36 268.916 257.032 268.772 257.56 268.484C258.088 268.172 258.496 267.8 258.784 267.368C259.096 266.936 259.3 266.468 259.396 265.964C259.516 265.436 259.576 264.956 259.576 264.524C259.576 264.092 259.516 263.624 259.396 263.12C259.3 262.592 259.096 262.112 258.784 261.68C258.496 261.248 258.088 260.888 257.56 260.6C257.032 260.288 256.36 260.132 255.544 260.132H241C240.16 260.132 239.476 260.288 238.948 260.6C238.444 260.888 238.036 261.248 237.724 261.68C237.436 262.112 237.232 262.592 237.112 263.12C237.016 263.624 236.968 264.092 236.968 264.524C236.968 264.956 237.016 265.436 237.112 265.964C237.232 266.468 237.436 266.936 237.724 267.368C238.036 267.8 238.444 268.172 238.948 268.484C239.476 268.772 240.16 268.916 241 268.916H255.544ZM262.924 264.524C262.924 265.436 262.768 266.36 262.456 267.296C262.168 268.208 261.736 269.048 261.16 269.816C260.584 270.56 259.888 271.172 259.072 271.652C258.256 272.132 257.332 272.372 256.3 272.372H239.884C238.9 272.324 238.024 272.06 237.256 271.58C236.488 271.076 235.828 270.452 235.276 269.708C234.748 268.964 234.34 268.136 234.052 267.224C233.764 266.312 233.62 265.412 233.62 264.524C233.62 263.612 233.764 262.7 234.052 261.788C234.364 260.852 234.808 260.012 235.384 259.268C235.96 258.5 236.656 257.876 237.472 257.396C238.288 256.916 239.212 256.676 240.244 256.676H256.66C257.644 256.724 258.52 257 259.288 257.504C260.056 257.984 260.704 258.596 261.232 259.34C261.784 260.084 262.204 260.912 262.492 261.824C262.78 262.736 262.924 263.636 262.924 264.524ZM295.65 270.644C295.65 271.124 295.482 271.532 295.146 271.868C294.81 272.204 294.402 272.372 293.922 272.372C293.442 272.372 293.034 272.204 292.698 271.868C292.362 271.532 292.194 271.124 292.194 270.644V262.796C292.194 261.812 292.134 261.32 292.014 261.32C291.918 261.32 291.582 261.644 291.006 262.292L283.086 271.292C282.774 271.652 282.39 271.928 281.934 272.12C281.478 272.288 280.986 272.372 280.458 272.372C279.93 272.372 279.438 272.288 278.982 272.12C278.526 271.928 278.142 271.652 277.83 271.292L269.91 262.292C269.358 261.644 269.022 261.32 268.902 261.32C268.782 261.32 268.722 261.812 268.722 262.796V270.644C268.722 271.124 268.554 271.532 268.218 271.868C267.882 272.204 267.474 272.372 266.994 272.372C266.514 272.372 266.106 272.204 265.77 271.868C265.434 271.532 265.266 271.124 265.266 270.644V260.132C265.266 259.172 265.542 258.356 266.094 257.684C266.646 257.012 267.402 256.676 268.362 256.676C268.938 256.676 269.454 256.82 269.91 257.108C270.366 257.396 270.786 257.744 271.17 258.152L279.45 267.584C279.57 267.704 279.714 267.836 279.882 267.98C280.074 268.1 280.266 268.16 280.458 268.16C280.65 268.16 280.83 268.1 280.998 267.98C281.19 267.836 281.346 267.704 281.466 267.584L289.71 258.152H289.746C290.082 257.696 290.49 257.336 290.97 257.072C291.45 256.808 291.978 256.676 292.554 256.676C293.514 256.676 294.27 257.012 294.822 257.684C295.374 258.356 295.65 259.172 295.65 260.132V270.644ZM314.202 270.644C314.202 271.124 314.034 271.532 313.698 271.868C313.362 272.204 312.954 272.372 312.474 272.372C311.994 272.372 311.586 272.204 311.25 271.868C310.914 271.532 310.746 271.124 310.746 270.644V266.252C309.834 266.252 308.946 266.132 308.082 265.892C307.218 265.652 306.306 265.28 305.346 264.776C304.41 264.248 303.402 263.576 302.322 262.76C301.242 261.944 300.03 260.948 298.686 259.772C298.494 259.604 298.326 259.4 298.182 259.16C298.062 258.92 298.002 258.668 298.002 258.404C298.002 257.924 298.17 257.516 298.506 257.18C298.842 256.844 299.25 256.676 299.73 256.676C299.97 256.676 300.186 256.724 300.378 256.82C300.57 256.916 300.762 257.036 300.954 257.18C302.49 258.524 303.774 259.58 304.806 260.348C305.862 261.092 306.798 261.644 307.614 262.004C308.454 262.364 309.246 262.592 309.99 262.688C310.734 262.76 311.574 262.796 312.51 262.796C313.446 262.796 314.274 262.76 314.994 262.688C315.714 262.616 316.482 262.4 317.298 262.04C318.114 261.68 319.038 261.128 320.07 260.384C321.126 259.616 322.434 258.548 323.994 257.18C324.402 256.844 324.81 256.676 325.218 256.676C325.698 256.676 326.106 256.844 326.442 257.18C326.778 257.516 326.946 257.924 326.946 258.404C326.946 258.668 326.874 258.92 326.73 259.16C326.61 259.4 326.454 259.604 326.262 259.772C324.942 260.924 323.73 261.92 322.626 262.76C321.522 263.576 320.478 264.248 319.494 264.776C318.534 265.28 317.61 265.652 316.722 265.892C315.858 266.132 315.018 266.252 314.202 266.252V270.644ZM349.032 266.252C348.36 266.252 347.736 266.132 347.16 265.892C346.584 265.628 346.08 265.28 345.648 264.848C345.216 264.416 344.868 263.912 344.604 263.336C344.364 262.76 344.244 262.136 344.244 261.464C344.244 260.792 344.364 260.168 344.604 259.592C344.868 259.016 345.216 258.512 345.648 258.08C346.08 257.648 346.584 257.312 347.16 257.072C347.736 256.808 348.36 256.676 349.032 256.676H370.884C371.364 256.676 371.772 256.844 372.108 257.18C372.444 257.516 372.612 257.924 372.612 258.404C372.612 258.884 372.444 259.292 372.108 259.628C371.772 259.964 371.364 260.132 370.884 260.132H348.96C348.6 260.132 348.276 260.264 347.988 260.528C347.724 260.768 347.592 261.08 347.592 261.464C347.592 261.824 347.724 262.136 347.988 262.4C348.276 262.664 348.6 262.796 348.96 262.796H368.868C369.54 262.796 370.164 262.928 370.74 263.192C371.34 263.432 371.856 263.768 372.288 264.2C372.72 264.632 373.056 265.148 373.296 265.748C373.56 266.324 373.692 266.948 373.692 267.62C373.692 268.292 373.56 268.916 373.296 269.492C373.056 270.068 372.72 270.572 372.288 271.004C371.856 271.436 371.34 271.772 370.74 272.012C370.164 272.252 369.54 272.372 368.868 272.372H347.052C346.572 272.372 346.164 272.204 345.828 271.868C345.492 271.532 345.324 271.124 345.324 270.644C345.324 270.164 345.492 269.756 345.828 269.42C346.164 269.084 346.572 268.916 347.052 268.916H369.012C369.372 268.916 369.684 268.796 369.948 268.556C370.212 268.292 370.344 267.98 370.344 267.62C370.344 267.236 370.212 266.912 369.948 266.648C369.684 266.384 369.372 266.252 369.012 266.252H349.032ZM397.955 268.916C398.771 268.916 399.443 268.772 399.971 268.484C400.499 268.172 400.907 267.8 401.195 267.368C401.507 266.936 401.711 266.468 401.807 265.964C401.927 265.436 401.987 264.956 401.987 264.524C401.987 264.092 401.927 263.624 401.807 263.12C401.711 262.592 401.507 262.112 401.195 261.68C400.907 261.248 400.499 260.888 399.971 260.6C399.443 260.288 398.771 260.132 397.955 260.132H383.411C382.571 260.132 381.887 260.288 381.359 260.6C380.855 260.888 380.447 261.248 380.135 261.68C379.847 262.112 379.643 262.592 379.523 263.12C379.427 263.624 379.379 264.092 379.379 264.524C379.379 264.956 379.427 265.436 379.523 265.964C379.643 266.468 379.847 266.936 380.135 267.368C380.447 267.8 380.855 268.172 381.359 268.484C381.887 268.772 382.571 268.916 383.411 268.916H397.955ZM405.335 264.524C405.335 265.436 405.179 266.36 404.867 267.296C404.579 268.208 404.147 269.048 403.571 269.816C402.995 270.56 402.299 271.172 401.483 271.652C400.667 272.132 399.743 272.372 398.711 272.372H382.295C381.311 272.324 380.435 272.06 379.667 271.58C378.899 271.076 378.239 270.452 377.687 269.708C377.159 268.964 376.751 268.136 376.463 267.224C376.175 266.312 376.031 265.412 376.031 264.524C376.031 263.612 376.175 262.7 376.463 261.788C376.775 260.852 377.219 260.012 377.795 259.268C378.371 258.5 379.067 257.876 379.883 257.396C380.699 256.916 381.623 256.676 382.655 256.676H399.071C400.055 256.724 400.931 257 401.699 257.504C402.467 257.984 403.115 258.596 403.643 259.34C404.195 260.084 404.615 260.912 404.903 261.824C405.191 262.736 405.335 263.636 405.335 264.524ZM407.677 264.524C407.677 263.612 407.821 262.7 408.109 261.788C408.421 260.852 408.865 260.012 409.441 259.268C410.017 258.5 410.713 257.876 411.529 257.396C412.345 256.916 413.269 256.676 414.301 256.676H435.289C435.769 256.676 436.177 256.844 436.513 257.18C436.849 257.516 437.017 257.924 437.017 258.404C437.017 258.884 436.849 259.292 436.513 259.628C436.177 259.964 435.769 260.132 435.289 260.132H415.057C414.217 260.132 413.533 260.288 413.005 260.6C412.501 260.888 412.093 261.248 411.781 261.68C411.493 262.112 411.289 262.592 411.169 263.12C411.073 263.624 411.025 264.092 411.025 264.524C411.025 264.956 411.073 265.436 411.169 265.964C411.289 266.468 411.493 266.936 411.781 267.368C412.093 267.8 412.501 268.172 413.005 268.484C413.533 268.772 414.217 268.916 415.057 268.916H435.289C435.769 268.916 436.177 269.084 436.513 269.42C436.849 269.756 437.017 270.164 437.017 270.644C437.017 271.124 436.849 271.532 436.513 271.868C436.177 272.204 435.769 272.372 435.289 272.372H413.941C412.957 272.372 412.081 272.132 411.313 271.652C410.545 271.172 409.885 270.56 409.333 269.816C408.805 269.048 408.397 268.196 408.109 267.26C407.821 266.324 407.677 265.412 407.677 264.524ZM442.814 270.644C442.814 271.124 442.646 271.532 442.31 271.868C441.974 272.204 441.566 272.372 441.086 272.372C440.606 272.372 440.198 272.204 439.862 271.868C439.526 271.532 439.358 271.124 439.358 270.644V258.404C439.358 257.924 439.526 257.516 439.862 257.18C440.198 256.844 440.606 256.676 441.086 256.676C441.566 256.676 441.974 256.844 442.31 257.18C442.646 257.516 442.814 257.924 442.814 258.404V270.644ZM445.165 258.404C445.165 257.924 445.333 257.516 445.669 257.18C446.005 256.844 446.413 256.676 446.893 256.676H472.417C472.897 256.676 473.305 256.844 473.641 257.18C473.977 257.516 474.145 257.924 474.145 258.404C474.145 258.884 473.977 259.292 473.641 259.628C473.305 259.964 472.897 260.132 472.417 260.132H446.893C446.413 260.132 446.005 259.964 445.669 259.628C445.333 259.292 445.165 258.884 445.165 258.404ZM449.557 272.372C449.029 272.372 448.501 272.264 447.973 272.048C447.445 271.808 446.977 271.484 446.569 271.076C446.161 270.668 445.825 270.176 445.561 269.6C445.297 269.024 445.165 268.376 445.165 267.656V264.416C445.165 263.768 445.345 263.336 445.705 263.12C446.089 262.904 446.677 262.796 447.469 262.796H471.625C472.105 262.796 472.513 262.964 472.849 263.3C473.185 263.636 473.353 264.044 473.353 264.524C473.353 265.004 473.185 265.412 472.849 265.748C472.513 266.084 472.105 266.252 471.625 266.252H448.621V268.016C448.621 268.256 448.717 268.472 448.909 268.664C449.125 268.832 449.401 268.916 449.737 268.916H472.417C472.897 268.916 473.305 269.084 473.641 269.42C473.977 269.756 474.145 270.164 474.145 270.644C474.145 271.124 473.977 271.532 473.641 271.868C473.305 272.204 472.897 272.372 472.417 272.372H449.557ZM502.991 256.676C503.471 256.676 503.879 256.844 504.215 257.18C504.551 257.516 504.719 257.924 504.719 258.404C504.719 258.884 504.551 259.292 504.215 259.628C503.879 259.964 503.471 260.132 502.991 260.132H492.335V270.644C492.335 271.124 492.167 271.532 491.831 271.868C491.495 272.204 491.087 272.372 490.607 272.372C490.127 272.372 489.719 272.204 489.383 271.868C489.047 271.532 488.879 271.124 488.879 270.644V260.132H478.079C477.647 260.084 477.275 259.904 476.963 259.592C476.651 259.256 476.495 258.86 476.495 258.404C476.495 257.924 476.663 257.516 476.999 257.18C477.335 256.844 477.743 256.676 478.223 256.676H502.991ZM523.251 270.644C523.251 271.124 523.083 271.532 522.747 271.868C522.411 272.204 522.003 272.372 521.523 272.372C521.043 272.372 520.635 272.204 520.299 271.868C519.963 271.532 519.795 271.124 519.795 270.644V266.252C518.883 266.252 517.995 266.132 517.131 265.892C516.267 265.652 515.355 265.28 514.395 264.776C513.459 264.248 512.451 263.576 511.371 262.76C510.291 261.944 509.079 260.948 507.735 259.772C507.543 259.604 507.375 259.4 507.231 259.16C507.111 258.92 507.051 258.668 507.051 258.404C507.051 257.924 507.219 257.516 507.555 257.18C507.891 256.844 508.299 256.676 508.779 256.676C509.019 256.676 509.235 256.724 509.427 256.82C509.619 256.916 509.811 257.036 510.003 257.18C511.539 258.524 512.823 259.58 513.855 260.348C514.911 261.092 515.847 261.644 516.663 262.004C517.503 262.364 518.295 262.592 519.039 262.688C519.783 262.76 520.623 262.796 521.559 262.796C522.495 262.796 523.323 262.76 524.043 262.688C524.763 262.616 525.531 262.4 526.347 262.04C527.163 261.68 528.087 261.128 529.119 260.384C530.175 259.616 531.483 258.548 533.043 257.18C533.451 256.844 533.859 256.676 534.267 256.676C534.747 256.676 535.155 256.844 535.491 257.18C535.827 257.516 535.995 257.924 535.995 258.404C535.995 258.668 535.923 258.92 535.779 259.16C535.659 259.4 535.503 259.604 535.311 259.772C533.991 260.924 532.779 261.92 531.675 262.76C530.571 263.576 529.527 264.248 528.543 264.776C527.583 265.28 526.659 265.652 525.771 265.892C524.907 266.132 524.067 266.252 523.251 266.252V270.644ZM579.753 262.796C580.233 262.796 580.641 262.964 580.977 263.3C581.313 263.636 581.481 264.044 581.481 264.524C581.481 265.004 581.313 265.412 580.977 265.748C580.641 266.084 580.233 266.252 579.753 266.252H561.105C560.625 266.252 560.217 266.084 559.881 265.748C559.545 265.412 559.377 265.004 559.377 264.524C559.377 264.044 559.545 263.636 559.881 263.3C560.217 262.964 560.625 262.796 561.105 262.796H579.753ZM553.329 264.524C553.329 263.612 553.473 262.7 553.761 261.788C554.073 260.852 554.517 260.012 555.093 259.268C555.669 258.5 556.365 257.876 557.181 257.396C557.997 256.916 558.921 256.676 559.953 256.676H580.581C581.061 256.676 581.469 256.844 581.805 257.18C582.141 257.516 582.309 257.924 582.309 258.404C582.309 258.884 582.141 259.292 581.805 259.628C581.469 259.964 581.061 260.132 580.581 260.132H560.709C559.917 260.132 559.269 260.264 558.765 260.528C558.261 260.792 557.865 261.14 557.577 261.572C557.289 261.98 557.085 262.424 556.965 262.904C556.869 263.384 556.809 263.84 556.785 264.272V270.644C556.785 271.124 556.617 271.532 556.281 271.868C555.945 272.204 555.537 272.372 555.057 272.372C554.577 272.372 554.169 272.204 553.833 271.868C553.497 271.532 553.329 271.124 553.329 270.644V264.524ZM589.411 266.252C588.739 266.252 588.115 266.132 587.539 265.892C586.963 265.628 586.459 265.28 586.027 264.848C585.595 264.416 585.247 263.912 584.983 263.336C584.743 262.76 584.623 262.136 584.623 261.464C584.623 260.792 584.743 260.168 584.983 259.592C585.247 259.016 585.595 258.512 586.027 258.08C586.459 257.648 586.963 257.312 587.539 257.072C588.115 256.808 588.739 256.676 589.411 256.676H611.263C611.743 256.676 612.151 256.844 612.487 257.18C612.823 257.516 612.991 257.924 612.991 258.404C612.991 258.884 612.823 259.292 612.487 259.628C612.151 259.964 611.743 260.132 611.263 260.132H589.339C588.979 260.132 588.655 260.264 588.367 260.528C588.103 260.768 587.971 261.08 587.971 261.464C587.971 261.824 588.103 262.136 588.367 262.4C588.655 262.664 588.979 262.796 589.339 262.796H609.247C609.919 262.796 610.543 262.928 611.119 263.192C611.719 263.432 612.235 263.768 612.667 264.2C613.099 264.632 613.435 265.148 613.675 265.748C613.939 266.324 614.071 266.948 614.071 267.62C614.071 268.292 613.939 268.916 613.675 269.492C613.435 270.068 613.099 270.572 612.667 271.004C612.235 271.436 611.719 271.772 611.119 272.012C610.543 272.252 609.919 272.372 609.247 272.372H587.431C586.951 272.372 586.543 272.204 586.207 271.868C585.871 271.532 585.703 271.124 585.703 270.644C585.703 270.164 585.871 269.756 586.207 269.42C586.543 269.084 586.951 268.916 587.431 268.916H609.391C609.751 268.916 610.063 268.796 610.327 268.556C610.591 268.292 610.723 267.98 610.723 267.62C610.723 267.236 610.591 266.912 610.327 266.648C610.063 266.384 609.751 266.252 609.391 266.252H589.411ZM627.065 268.484C627.065 267.86 627.281 267.332 627.713 266.9C628.145 266.468 628.673 266.252 629.297 266.252C629.921 266.252 630.449 266.468 630.881 266.9C631.313 267.332 631.529 267.86 631.529 268.484C631.529 269.108 631.313 269.636 630.881 270.068C630.449 270.5 629.921 270.716 629.297 270.716C628.673 270.716 628.145 270.5 627.713 270.068C627.281 269.636 627.065 269.108 627.065 268.484ZM619.469 271.724C619.109 272.156 618.665 272.372 618.137 272.372C617.657 272.372 617.249 272.204 616.913 271.868C616.577 271.532 616.409 271.124 616.409 270.644C616.409 270.212 616.529 269.864 616.769 269.6L625.517 257.828C625.925 257.276 626.465 256.832 627.137 256.496C627.809 256.136 628.529 255.956 629.297 255.956C630.017 255.956 630.701 256.112 631.349 256.424C631.997 256.736 632.525 257.168 632.933 257.72L641.681 269.42C641.825 269.588 641.945 269.78 642.041 269.996C642.137 270.188 642.185 270.404 642.185 270.644C642.185 271.124 642.017 271.532 641.681 271.868C641.345 272.204 640.937 272.372 640.457 272.372C639.881 272.372 639.425 272.144 639.089 271.688L630.701 260.492C630.533 260.3 630.317 260.096 630.053 259.88C629.813 259.64 629.561 259.52 629.297 259.52C629.033 259.52 628.769 259.64 628.505 259.88C628.265 260.096 628.073 260.3 627.929 260.492L619.469 271.724Z" fill="white"/>
<circle cx="597.5" cy="193.129" r="60.5" fill="black"/>
<circle cx="597.5" cy="193.129" r="45.5" fill="white"/>
<circle cx="597.5" cy="193.129" r="32.5" fill="black"/>
<path d="M562 209.129C550 182.129 513 115.629 488 86.1294C529.167 95.7961 607.7 140.829 628.5 169.629" stroke="white" stroke-width="12.7" stroke-linecap="round"/>
<path d="M451 67.6119C329 16.6119 103.5 70.6294 55 227.129" stroke="white" stroke-width="12.7" stroke-linecap="round"/>
</svg>
